<?xml version="1.0" encoding="UTF-8" standalone="no"?>
<!DOCTYPE svg PUBLIC "-//W3C//DTD SVG 1.1//EN"
 "http://www.w3.org/Graphics/SVG/1.1/DTD/svg11.dtd">
<!-- Generated by graphviz version 5.0.0 (20220707.1540)
 -->
<!-- Title: dependencies Pages: 1 -->
<svg width="2239pt" height="247pt"
 viewBox="0.00 0.00 2239.00 246.80" xmlns="http://www.w3.org/2000/svg" xmlns:xlink="http://www.w3.org/1999/xlink">
<g id="graph0" class="graph" transform="scale(1 1) rotate(0) translate(4 242.8)">
<title>dependencies</title>
<polygon fill="white" stroke="transparent" points="-4,4 -4,-242.8 2235,-242.8 2235,4 -4,4"/>
<text text-anchor="middle" x="1115.5" y="-8.2" font-family="sans-serif" font-size="14.00">dependencies</text>
<g id="clust1" class="cluster">
<title>cluster_AppModule</title>
<polygon fill="none" stroke="black" stroke-dasharray="1,5" points="8,-32.8 8,-230.8 2223,-230.8 2223,-32.8 8,-32.8"/>
</g>
<g id="clust16" class="cluster">
<title>cluster_AppModule_imports</title>
<polygon fill="none" stroke="black" points="2071,-40.8 2071,-92.8 2215,-92.8 2215,-40.8 2071,-40.8"/>
</g>
<g id="clust18" class="cluster">
<title>cluster_AppModule_bootstrap</title>
<polygon fill="none" stroke="black" points="1054,-170.8 1054,-222.8 1178,-222.8 1178,-170.8 1054,-170.8"/>
</g>
<g id="clust2" class="cluster">
<title>cluster_AppModule_declarations</title>
<polygon fill="none" stroke="black" points="16,-40.8 16,-92.8 2063,-92.8 2063,-40.8 16,-40.8"/>
</g>
<!-- AddEditRecipeComponent -->
<g id="node1" class="node">
<title>AddEditRecipeComponent</title>
<polygon fill="#ffffb3" stroke="black" points="2054.64,-84.8 1887.36,-84.8 1887.36,-48.8 2054.64,-48.8 2054.64,-84.8"/>
<text text-anchor="middle" x="1971" y="-62.6" font-family="Times,serif" font-size="14.00">AddEditRecipeComponent</text>
</g>
<!-- AppModule -->
<g id="node14" class="node">
<title>AppModule</title>
<polygon fill="#8dd3c7" stroke="black" points="1157.66,-149.8 1154.66,-153.8 1133.66,-153.8 1130.66,-149.8 1074.34,-149.8 1074.34,-113.8 1157.66,-113.8 1157.66,-149.8"/>
<text text-anchor="middle" x="1116" y="-127.6" font-family="Times,serif" font-size="14.00">AppModule</text>
</g>
<!-- AddEditRecipeComponent&#45;&gt;AppModule -->
<g id="edge1" class="edge">
<title>AddEditRecipeComponent&#45;&gt;AppModule</title>
<path fill="none" stroke="black" d="M1971,-84.84C1971,-106.46 1971,-139.8 1971,-139.8 1971,-139.8 1167.82,-139.8 1167.82,-139.8"/>
<polygon fill="black" stroke="black" points="1167.82,-136.3 1157.82,-139.8 1167.82,-143.3 1167.82,-136.3"/>
</g>
<!-- AppComponent -->
<g id="node2" class="node">
<title>AppComponent</title>
<polygon fill="#ffffb3" stroke="black" points="1868.94,-84.8 1763.06,-84.8 1763.06,-48.8 1868.94,-48.8 1868.94,-84.8"/>
<text text-anchor="middle" x="1816" y="-62.6" font-family="Times,serif" font-size="14.00">AppComponent</text>
</g>
<!-- AppComponent&#45;&gt;AppModule -->
<g id="edge2" class="edge">
<title>AppComponent&#45;&gt;AppModule</title>
<path fill="none" stroke="black" d="M1816,-85.02C1816,-105.17 1816,-134.8 1816,-134.8 1816,-134.8 1167.69,-134.8 1167.69,-134.8"/>
<polygon fill="black" stroke="black" points="1167.69,-131.3 1157.69,-134.8 1167.69,-138.3 1167.69,-131.3"/>
</g>
<!-- BarcodeEntryComponent -->
<g id="node3" class="node">
<title>BarcodeEntryComponent</title>
<polygon fill="#ffffb3" stroke="black" points="1745.58,-84.8 1586.42,-84.8 1586.42,-48.8 1745.58,-48.8 1745.58,-84.8"/>
<text text-anchor="middle" x="1666" y="-62.6" font-family="Times,serif" font-size="14.00">BarcodeEntryComponent</text>
</g>
<!-- BarcodeEntryComponent&#45;&gt;AppModule -->
<g id="edge3" class="edge">
<title>BarcodeEntryComponent&#45;&gt;AppModule</title>
<path fill="none" stroke="black" d="M1666,-85.02C1666,-103.63 1666,-129.8 1666,-129.8 1666,-129.8 1167.79,-129.8 1167.79,-129.8"/>
<polygon fill="black" stroke="black" points="1167.79,-126.3 1157.79,-129.8 1167.79,-133.3 1167.79,-126.3"/>
</g>
<!-- BeerEntryComponent -->
<g id="node4" class="node">
<title>BeerEntryComponent</title>
<polygon fill="#ffffb3" stroke="black" points="1568.36,-84.8 1429.64,-84.8 1429.64,-48.8 1568.36,-48.8 1568.36,-84.8"/>
<text text-anchor="middle" x="1499" y="-62.6" font-family="Times,serif" font-size="14.00">BeerEntryComponent</text>
</g>
<!-- BeerEntryComponent&#45;&gt;AppModule -->
<g id="edge4" class="edge">
<title>BeerEntryComponent&#45;&gt;AppModule</title>
<path fill="none" stroke="black" d="M1499,-84.83C1499,-101.86 1499,-124.8 1499,-124.8 1499,-124.8 1167.72,-124.8 1167.72,-124.8"/>
<polygon fill="black" stroke="black" points="1167.72,-121.3 1157.72,-124.8 1167.72,-128.3 1167.72,-121.3"/>
</g>
<!-- BeerListComponent -->
<g id="node5" class="node">
<title>BeerListComponent</title>
<polygon fill="#ffffb3" stroke="black" points="1411.54,-84.8 1282.46,-84.8 1282.46,-48.8 1411.54,-48.8 1411.54,-84.8"/>
<text text-anchor="middle" x="1347" y="-62.6" font-family="Times,serif" font-size="14.00">BeerListComponent</text>
</g>
<!-- BeerListComponent&#45;&gt;AppModule -->
<g id="edge5" class="edge">
<title>BeerListComponent&#45;&gt;AppModule</title>
<path fill="none" stroke="black" d="M1347,-85.04C1347,-100.37 1347,-119.8 1347,-119.8 1347,-119.8 1167.83,-119.8 1167.83,-119.8"/>
<polygon fill="black" stroke="black" points="1167.83,-116.3 1157.83,-119.8 1167.83,-123.3 1167.83,-116.3"/>
</g>
<!-- CategoriesComponent -->
<g id="node6" class="node">
<title>CategoriesComponent</title>
<polygon fill="#ffffb3" stroke="black" points="1264.7,-84.8 1123.3,-84.8 1123.3,-48.8 1264.7,-48.8 1264.7,-84.8"/>
<text text-anchor="middle" x="1194" y="-62.6" font-family="Times,serif" font-size="14.00">CategoriesComponent</text>
</g>
<!-- CategoriesComponent&#45;&gt;AppModule -->
<g id="edge6" class="edge">
<title>CategoriesComponent&#45;&gt;AppModule</title>
<path fill="none" stroke="black" d="M1140.62,-84.91C1140.62,-84.91 1140.62,-103.79 1140.62,-103.79"/>
<polygon fill="black" stroke="black" points="1137.12,-103.79 1140.62,-113.79 1144.12,-103.79 1137.12,-103.79"/>
</g>
<!-- FavoritesComponent -->
<g id="node7" class="node">
<title>FavoritesComponent</title>
<polygon fill="#ffffb3" stroke="black" points="1105.94,-84.8 972.06,-84.8 972.06,-48.8 1105.94,-48.8 1105.94,-84.8"/>
<text text-anchor="middle" x="1039" y="-62.6" font-family="Times,serif" font-size="14.00">FavoritesComponent</text>
</g>
<!-- FavoritesComponent&#45;&gt;AppModule -->
<g id="edge7" class="edge">
<title>FavoritesComponent&#45;&gt;AppModule</title>
<path fill="none" stroke="black" d="M1089.94,-84.91C1089.94,-84.91 1089.94,-103.79 1089.94,-103.79"/>
<polygon fill="black" stroke="black" points="1086.44,-103.79 1089.94,-113.79 1093.44,-103.79 1086.44,-103.79"/>
</g>
<!-- FridgeComponent -->
<g id="node8" class="node">
<title>FridgeComponent</title>
<polygon fill="#ffffb3" stroke="black" points="953.88,-84.8 836.12,-84.8 836.12,-48.8 953.88,-48.8 953.88,-84.8"/>
<text text-anchor="middle" x="895" y="-62.6" font-family="Times,serif" font-size="14.00">FridgeComponent</text>
</g>
<!-- FridgeComponent&#45;&gt;AppModule -->
<g id="edge8" class="edge">
<title>FridgeComponent&#45;&gt;AppModule</title>
<path fill="none" stroke="black" d="M895,-85.04C895,-100.37 895,-119.8 895,-119.8 895,-119.8 1064.17,-119.8 1064.17,-119.8"/>
<polygon fill="black" stroke="black" points="1064.17,-123.3 1074.17,-119.8 1064.17,-116.3 1064.17,-123.3"/>
</g>
<!-- HelpPageComponent -->
<g id="node9" class="node">
<title>HelpPageComponent</title>
<polygon fill="#ffffb3" stroke="black" points="817.76,-84.8 682.24,-84.8 682.24,-48.8 817.76,-48.8 817.76,-84.8"/>
<text text-anchor="middle" x="750" y="-62.6" font-family="Times,serif" font-size="14.00">HelpPageComponent</text>
</g>
<!-- HelpPageComponent&#45;&gt;AppModule -->
<g id="edge9" class="edge">
<title>HelpPageComponent&#45;&gt;AppModule</title>
<path fill="none" stroke="black" d="M750,-84.83C750,-101.86 750,-124.8 750,-124.8 750,-124.8 1064.02,-124.8 1064.02,-124.8"/>
<polygon fill="black" stroke="black" points="1064.02,-128.3 1074.02,-124.8 1064.02,-121.3 1064.02,-128.3"/>
</g>
<!-- HomeComponent -->
<g id="node10" class="node">
<title>HomeComponent</title>
<polygon fill="#ffffb3" stroke="black" points="663.55,-84.8 548.45,-84.8 548.45,-48.8 663.55,-48.8 663.55,-84.8"/>
<text text-anchor="middle" x="606" y="-62.6" font-family="Times,serif" font-size="14.00">HomeComponent</text>
</g>
<!-- HomeComponent&#45;&gt;AppModule -->
<g id="edge10" class="edge">
<title>HomeComponent&#45;&gt;AppModule</title>
<path fill="none" stroke="black" d="M606,-85.02C606,-103.63 606,-129.8 606,-129.8 606,-129.8 1064.26,-129.8 1064.26,-129.8"/>
<polygon fill="black" stroke="black" points="1064.26,-133.3 1074.26,-129.8 1064.26,-126.3 1064.26,-133.3"/>
</g>
<!-- ReceipeListComponent -->
<g id="node11" class="node">
<title>ReceipeListComponent</title>
<polygon fill="#ffffb3" stroke="black" points="530.19,-84.8 381.81,-84.8 381.81,-48.8 530.19,-48.8 530.19,-84.8"/>
<text text-anchor="middle" x="456" y="-62.6" font-family="Times,serif" font-size="14.00">ReceipeListComponent</text>
</g>
<!-- ReceipeListComponent&#45;&gt;AppModule -->
<g id="edge11" class="edge">
<title>ReceipeListComponent&#45;&gt;AppModule</title>
<path fill="none" stroke="black" d="M456,-85.02C456,-105.17 456,-134.8 456,-134.8 456,-134.8 1064.21,-134.8 1064.21,-134.8"/>
<polygon fill="black" stroke="black" points="1064.21,-138.3 1074.21,-134.8 1064.21,-131.3 1064.21,-138.3"/>
</g>
<!-- RecipeEntryComponent -->
<g id="node12" class="node">
<title>RecipeEntryComponent</title>
<polygon fill="#ffffb3" stroke="black" points="363.8,-84.8 212.2,-84.8 212.2,-48.8 363.8,-48.8 363.8,-84.8"/>
<text text-anchor="middle" x="288" y="-62.6" font-family="Times,serif" font-size="14.00">RecipeEntryComponent</text>
</g>
<!-- RecipeEntryComponent&#45;&gt;AppModule -->
<g id="edge12" class="edge">
<title>RecipeEntryComponent&#45;&gt;AppModule</title>
<path fill="none" stroke="black" d="M288,-84.84C288,-106.46 288,-139.8 288,-139.8 288,-139.8 1064.09,-139.8 1064.09,-139.8"/>
<polygon fill="black" stroke="black" points="1064.09,-143.3 1074.09,-139.8 1064.09,-136.3 1064.09,-143.3"/>
</g>
<!-- YourRecipeListComponent -->
<g id="node13" class="node">
<title>YourRecipeListComponent</title>
<polygon fill="#ffffb3" stroke="black" points="194.25,-84.8 23.75,-84.8 23.75,-48.8 194.25,-48.8 194.25,-84.8"/>
<text text-anchor="middle" x="109" y="-62.6" font-family="Times,serif" font-size="14.00">YourRecipeListComponent</text>
</g>
<!-- YourRecipeListComponent&#45;&gt;AppModule -->
<g id="edge13" class="edge">
<title>YourRecipeListComponent&#45;&gt;AppModule</title>
<path fill="none" stroke="black" d="M109,-84.89C109,-107.93 109,-144.8 109,-144.8 109,-144.8 1064.33,-144.8 1064.33,-144.8"/>
<polygon fill="black" stroke="black" points="1064.33,-148.3 1074.33,-144.8 1064.33,-141.3 1064.33,-148.3"/>
</g>
<!-- AppComponent  -->
<g id="node16" class="node">
<title>AppComponent </title>
<polygon fill="#80b1d3" stroke="black" points="1170.44,-214.8 1061.56,-214.8 1061.56,-178.8 1170.44,-178.8 1170.44,-214.8"/>
<text text-anchor="middle" x="1116" y="-192.6" font-family="Times,serif" font-size="14.00">AppComponent </text>
</g>
<!-- AppModule&#45;&gt;AppComponent  -->
<g id="edge15" class="edge">
<title>AppModule&#45;&gt;AppComponent </title>
<path fill="none" stroke="black" stroke-dasharray="1,5" d="M1116,-149.91C1116,-149.91 1116,-168.79 1116,-168.79"/>
<polygon fill="black" stroke="black" points="1112.5,-168.79 1116,-178.79 1119.5,-168.79 1112.5,-168.79"/>
</g>
<!-- AppRoutingModule -->
<g id="node15" class="node">
<title>AppRoutingModule</title>
<polygon fill="#8dd3c7" stroke="black" points="2207.28,-84.8 2204.28,-88.8 2183.28,-88.8 2180.28,-84.8 2078.72,-84.8 2078.72,-48.8 2207.28,-48.8 2207.28,-84.8"/>
<text text-anchor="middle" x="2143" y="-62.6" font-family="Times,serif" font-size="14.00">AppRoutingModule</text>
</g>
<!-- AppRoutingModule&#45;&gt;AppModule -->
<g id="edge14" class="edge">
<title>AppRoutingModule&#45;&gt;AppModule</title>
<path fill="none" stroke="black" d="M2143,-84.89C2143,-107.93 2143,-144.8 2143,-144.8 2143,-144.8 1167.85,-144.8 1167.85,-144.8"/>
<polygon fill="black" stroke="black" points="1167.85,-141.3 1157.85,-144.8 1167.85,-148.3 1167.85,-141.3"/>
</g>
</g>
</svg>
